<svg width="188" height="42" viewBox="0 0 188 42" fill="none" xmlns="http://www.w3.org/2000/svg">
<path d="M150.324 3.74786L149.623 3.05372L149.632 3.04553L150.324 3.74786ZM150.324 37.6759L149.63 38.3765L149.622 38.3682L150.324 37.6759ZM184.252 37.6759L184.953 38.37L184.945 38.3783L184.252 37.6759ZM184.252 3.74786L184.946 3.04711L184.955 3.05541L184.252 3.74786ZM154.217 12.9926L153.231 13.0128C153.225 12.7478 153.327 12.4917 153.512 12.3024C153.698 12.113 153.952 12.0063 154.217 12.0063V12.9926ZM169.077 29.4043H170.063C170.063 29.949 169.621 30.3906 169.077 30.3906V29.4043ZM169.077 23.5391H168.09C168.09 23.2606 168.208 22.9951 168.415 22.8081C168.621 22.6211 168.897 22.5302 169.174 22.5578L169.077 23.5391ZM175.875 29.4043V30.3906C175.447 30.3906 175.067 30.1137 174.936 29.7054L175.875 29.4043ZM180.544 29.4043L181.496 29.1469C181.576 29.4432 181.514 29.76 181.327 30.0038C181.14 30.2476 180.851 30.3906 180.544 30.3906V29.4043ZM173.798 21.1721L173.358 22.0552C173.037 21.895 172.827 21.5729 172.812 21.2141C172.797 20.8553 172.978 20.5166 173.285 20.3298L173.798 21.1721ZM179.557 12.9794V11.9932C179.854 11.9932 180.134 12.1263 180.322 12.3558C180.509 12.5853 180.583 12.8868 180.524 13.1771L179.557 12.9794ZM175.323 12.9794L174.374 12.7115C174.494 12.2866 174.881 11.9932 175.323 11.9932V12.9794ZM169.077 19.4757L169.181 20.4564C168.903 20.4862 168.625 20.3963 168.417 20.2093C168.209 20.0221 168.09 19.7556 168.09 19.4757H169.077ZM169.077 12.9926V12.0063C169.621 12.0063 170.063 12.4479 170.063 12.9926H169.077ZM164.829 12.9926H163.843C163.843 12.4479 164.284 12.0063 164.829 12.0063V12.9926ZM164.829 24.3546H165.815C165.815 24.6582 165.675 24.945 165.436 25.132C165.197 25.3188 164.885 25.3851 164.59 25.3113L164.829 24.3546ZM158.74 12.9926V12.0063C159.278 12.0063 159.716 12.4364 159.727 12.9736L158.74 12.9926ZM146.576 19.9228C146.576 15.486 146.574 12.0613 146.93 9.40155C147.29 6.71345 148.031 4.6609 149.623 3.05372L151.356 4.77966C150.186 5.96036 149.297 6.94128 148.966 9.41141C148.632 11.9099 148.966 15.423 148.966 19.9153L146.576 19.9228ZM146.576 21.5009V19.9228L148.966 19.9153V21.5009H146.576ZM149.622 38.3682C148.031 36.7551 147.29 34.7007 146.93 32.0123C146.574 29.3527 146.576 25.9313 146.576 21.5009H148.966C148.966 25.9865 148.632 29.2619 148.966 31.7606C149.297 34.2304 150.185 35.4562 151.356 36.6441L149.622 38.3682ZM166.499 41.4237C162.062 41.4237 158.638 41.4259 155.978 41.0699C153.29 40.7101 151.237 39.9686 149.63 38.3765L151.356 36.6441C152.537 37.8136 153.508 38.7033 155.978 39.0339C158.476 39.3683 162.007 39.0339 166.499 39.0339V41.4237ZM168.077 41.4237H166.499V39.0339H168.077V41.4237ZM184.945 38.3783C183.332 39.9688 181.277 40.7101 178.589 41.0699C175.929 41.4259 172.508 41.4237 168.077 41.4237V39.0339C172.563 39.0339 175.829 39.3683 178.327 39.0339C180.797 38.7033 182.032 37.8152 183.22 36.6441L184.945 38.3783ZM188 21.5009C188 25.9378 188.002 29.3625 187.646 32.0221C187.286 34.7103 186.545 36.7628 184.953 38.37L183.22 36.6441C184.39 35.4635 185.28 34.2306 185.61 31.7606C185.945 29.2619 185.61 25.9932 185.61 21.5009H188ZM188 19.9228V21.5009H185.61V19.9153L188 19.9228ZM184.955 3.05541C186.545 4.66861 187.286 6.72315 187.646 9.41141C188.002 12.0712 188 15.4926 188 19.9228L185.61 19.9153C185.61 15.4296 185.945 11.9099 185.61 9.41141C185.28 6.94143 185.188 5.9675 184.017 4.77966L184.955 3.05541ZM168.077 2.74046e-07C172.514 2.74046e-07 175.939 -0.00207094 178.599 0.353917C181.287 0.713692 183.339 1.45508 184.946 3.04711L184.017 4.77966C182.836 3.61011 180.809 2.72045 178.338 2.38983C175.84 2.05542 172.583 2.38983 168.09 2.38983L168.077 2.74046e-07ZM166.499 2.74046e-07H168.077L168.09 2.38983H166.499V2.74046e-07ZM149.632 3.04553C151.245 1.45506 153.299 0.713731 155.988 0.353917C158.647 -0.00207094 162.069 2.74046e-07 166.499 2.74046e-07V2.38983C162.013 2.38983 158.486 2.05542 155.988 2.38983C153.518 2.72041 152.544 3.60855 151.356 4.77966L149.632 3.04553ZM168.551 30.3906C163.812 30.3906 159.991 28.7595 157.343 25.689C154.714 22.6414 153.339 18.2894 153.231 13.0128L155.203 12.9724C155.305 17.953 156.599 21.8068 158.836 24.4007C161.054 26.9718 164.294 28.4181 168.551 28.4181V30.3906ZM168.564 30.3906H168.551V28.4181H168.564V30.3906ZM169.077 30.3906H168.564V28.4181H169.077V30.3906ZM170.063 23.5391V29.4043H168.09V23.5391H170.063ZM174.936 29.7054C174.033 26.8883 171.816 24.8032 168.979 24.5207L169.174 22.5578C172.938 22.9328 175.719 25.6869 176.815 29.1031L174.936 29.7054ZM180.544 30.3906H175.875V28.4181H180.544V30.3906ZM178.816 23.9398C180.067 25.4665 180.981 27.2412 181.496 29.1469L179.592 29.6618C179.149 28.0253 178.365 26.5011 177.29 25.1902L178.816 23.9398ZM174.237 20.2891C176.004 21.1687 177.565 22.413 178.816 23.9398L177.29 25.1902C176.216 23.879 174.876 22.8105 173.358 22.0552L174.237 20.2891ZM178.338 18.2434C177.269 19.7641 175.898 21.0478 174.311 22.0145L173.285 20.3298C174.641 19.5041 175.812 18.4075 176.725 17.109L178.338 18.2434ZM180.524 13.1771C180.151 14.9981 179.407 16.7228 178.338 18.2434L176.725 17.109C177.638 15.8102 178.273 14.3372 178.591 12.7818L180.524 13.1771ZM175.323 11.9932H179.557V13.9657H175.323V11.9932ZM168.972 18.4951C169.951 18.3906 171.081 17.7522 172.111 16.6677C173.128 15.5969 173.959 14.1815 174.374 12.7115L176.272 13.2474C175.767 15.0387 174.769 16.7334 173.541 18.0262C172.326 19.3054 170.793 20.2846 169.181 20.4564L168.972 18.4951ZM170.063 12.9926V19.4757H168.09V12.9926H170.063ZM164.829 12.0063H169.077V13.9789H164.829V12.0063ZM163.843 24.3546V12.9926H165.815V24.3546H163.843ZM159.727 12.9736C159.866 20.2239 163.018 22.8852 165.068 23.3977L164.59 25.3113C161.38 24.5088 157.904 20.8054 157.754 13.0116L159.727 12.9736ZM154.217 12.0063H158.74V13.9789H154.217V12.0063Z" fill="#223008"/>
<path fill-rule="evenodd" clip-rule="evenodd" d="M0 12.7164V28.7074C0 35.7192 5.70455 41.4237 12.7164 41.4237H28.7074C35.7192 41.4237 41.4237 35.7192 41.4237 28.7074V12.7164C41.4237 5.70455 35.7192 0 28.7074 0H12.7164C5.70455 0 0 5.70455 0 12.7164ZM2.38983 12.7458C2.38983 7.69444 7.69444 2.38983 12.7458 2.38983H28.7074C33.7588 2.38983 39.0339 7.66511 39.0339 12.7164V28.7074C39.0339 33.7588 33.7588 39.0339 28.7074 39.0339H12.7458C7.69444 39.0339 2.38983 33.7588 2.38983 28.7074V12.7458ZM13.5424 20.7119C13.5424 23.844 17.5797 27.8814 20.7119 27.8814C23.844 27.8814 27.8814 23.844 27.8814 20.7119C27.8814 17.5797 23.844 13.5424 20.7119 13.5424C17.5797 13.5424 13.5424 17.5797 13.5424 20.7119ZM11.2767 20.7119C11.2767 15.5092 15.5092 11.2767 20.7119 11.2767C25.9145 11.2767 30.1471 15.5092 30.1471 20.7119C30.1471 25.9145 25.9145 30.1471 20.7119 30.1471C15.5092 30.1471 11.2767 25.9145 11.2767 20.7119ZM31.3373 7.9661C32.6721 7.9661 33.4576 8.59539 33.4576 9.93017C33.4576 11.265 32.661 11.9492 31.3373 11.9492C30.0025 11.9492 29.1671 11.265 29.1671 9.93017C29.1671 8.59539 30.0025 7.9661 31.3373 7.9661Z" fill="#223008"/>
<path d="M113.582 2.98619L91.9886 40.4889C91.6756 41.0326 91.1616 41.3424 90.627 41.3424C90.4704 41.3424 90.3121 41.316 90.1562 41.2609C89.4693 41.0177 88.9929 40.2752 88.9778 39.4232L88.7781 28.2175C88.759 27.1349 89.4817 26.2389 90.3925 26.2159C91.3079 26.1979 91.5458 27.5137 91.5651 28.5966L91.5651 36.5627L101.921 19.0373L110.684 2.98619L76.4746 6.37308L82.5069 10.3561C83.2861 10.9171 84.0451 11.2513 83.5729 12.1773C83.1007 13.1032 82.0867 13.3988 81.307 12.8382L73.2414 7.02991C72.6283 6.5884 72.3252 6.40511 72.4915 5.57647C72.6577 4.74779 73.3701 4.84496 74.0847 4.77986L111.525 0.898842C112.162 0.84217 113.051 0.694768 113.582 0.796811C113.899 1.45007 113.94 2.36391 113.582 2.98619ZM97.6764 11.8591C97.2211 10.9213 96.3829 11.3172 95.5932 11.8591L83.1107 19.5893C82.3217 20.1308 81.5952 21.3675 82.0508 22.3053C82.2403 22.6952 82.5404 22.6952 83.1107 22.6952C83.3906 22.6952 83.6773 22.446 83.9371 22.2675L96.3447 14.2577C97.1338 13.7162 98.132 12.7969 97.6764 11.8591Z" fill="#223008"/>
</svg>
