<svg width="52" height="51" viewBox="0 0 52 51" fill="none" xmlns="http://www.w3.org/2000/svg">
<path d="M49 10.4591H48C48.8 5.62983 47.2 2.69775 46 1.40418C45.4 0.714283 44.4 0.283095 43.3 0.369333C34.3 1.05923 29.7 3.64636 28.5 4.4225H23.2C22.2 3.64636 17.6 1.05923 8.6 0.369333C7.6 0.283095 6.5 0.714283 5.9 1.40418C4.8 2.69775 3.1 5.62983 3.9 10.4591H3C1.3 10.4591 0 11.5802 0 13.0463V20.4627C0 21.8425 1.3 22.9636 2.9 23.0498V47.8001C2.9 49.2661 4.2 50.3872 5.9 50.3872H46.1C47.8 50.3872 49.1 49.2661 49.1 47.8001V23.1361C50.7 23.0498 52 21.9288 52 20.549V13.1325C52 11.6665 50.7 10.4591 49 10.4591ZM30 5.71607C31.2 5.02617 35.4 2.78399 43.6 2.09409C43.9 2.09409 44.3 2.18032 44.5 2.43904C45.4 3.56013 46.9 6.06102 46.1 10.5454H32.7H30V5.71607ZM24 6.14726H28V10.5454H24V6.14726ZM7.6 2.43904C7.8 2.18032 8.1 2.09409 8.4 2.09409C16.6 2.69775 20.9 5.02617 22 5.71607V10.5454H19.3H6C5.2 6.06102 6.6 3.56013 7.6 2.43904ZM3.9 21.4113H3C2.4 21.4113 2 21.0664 2 20.549V13.1325C2 12.6151 2.4 12.2701 3 12.2701H18.3V21.4113H3.9ZM19.6 48.6624H5.9C5.3 48.6624 4.9 48.3175 4.9 47.8001V23.1361H19.6V48.6624ZM30.4 48.6624H21.6V23.1361H30.4V48.6624ZM31.7 21.4113H20.3V12.1839H31.6V21.4113H31.7ZM47.1 47.8001C47.1 48.3175 46.7 48.6624 46.1 48.6624H32.4V23.1361H47.1V47.8001ZM50 20.549C50 21.0664 49.6 21.4113 49 21.4113H48.1H33.7V12.1839H49C49.6 12.1839 50 12.5288 50 13.0463V20.549Z" fill="#223008"/>
</svg>
