<svg width="51" height="68" viewBox="0 0 51 68" fill="none" xmlns="http://www.w3.org/2000/svg">
<path fill-rule="evenodd" clip-rule="evenodd" d="M51 16.9278C51 14.0179 49.4378 11.3791 47.0153 10.196C42.0267 7.76353 32.5058 3.11803 28.2258 1.02881C26.4905 0.183104 24.5095 0.183104 22.7742 1.02881C18.4942 3.11803 8.97331 7.76353 3.9847 10.196C1.5622 11.3791 0 14.0179 0 16.9278V39.619C0 48.7155 4.58464 55.1865 9.90474 59.5933C15.0759 63.8749 20.9221 66.1807 23.6291 67.0912C23.6358 67.0942 23.6439 67.0956 23.6506 67.0986C24.8585 67.4802 26.1402 67.4802 27.3481 67.1001C27.3562 67.0971 27.3642 67.0956 27.3722 67.0927C30.0792 66.1807 35.9241 63.8763 41.0953 59.5933C46.4154 55.1865 51 48.7155 51 39.619V16.9278ZM48.3158 16.9278V39.619C48.3158 47.665 44.1848 53.3418 39.478 57.2403C34.6304 61.2567 29.1465 63.4122 26.5978 64.2712C25.8825 64.4937 25.1242 64.4937 24.4089 64.2712C21.8549 63.4108 16.371 61.2567 11.522 57.2403C6.8152 53.3418 2.68421 47.665 2.68421 39.619V16.9278C2.68421 15.1819 3.62102 13.5995 5.07586 12.8893C10.0631 10.4554 19.584 5.80986 23.8653 3.72211C24.9055 3.2138 26.0945 3.2138 27.1347 3.72211C31.416 5.80986 40.9369 10.4554 45.9241 12.8893C47.379 13.5995 48.3158 15.1819 48.3158 16.9278Z" fill="#223008"/>
<path fill-rule="evenodd" clip-rule="evenodd" d="M25.5 17.8472C17.4339 17.8472 10.8858 25.0357 10.8858 33.8891C10.8858 42.744 17.4339 49.9325 25.5 49.9325C33.5661 49.9325 40.1142 42.744 40.1142 33.8891C40.1142 25.0357 33.5661 17.8472 25.5 17.8472ZM25.5 20.7939C32.0844 20.7939 37.43 26.6608 37.43 33.8891C37.43 41.1174 32.0844 46.9858 25.5 46.9858C18.9156 46.9858 13.57 41.1174 13.57 33.8891C13.57 26.6608 18.9156 20.7939 25.5 20.7939Z" fill="#223008"/>
<path fill-rule="evenodd" clip-rule="evenodd" d="M18.8571 34.9315L22.6531 39.0988C23.177 39.6738 24.0273 39.6738 24.5512 39.0988L32.1433 30.7642C32.6671 30.1891 32.6671 29.2556 32.1433 28.6805C31.6194 28.1055 30.7691 28.1055 30.2452 28.6805L23.6022 35.9733L20.7551 32.8478C20.2313 32.2727 19.3809 32.2727 18.8571 32.8478C18.3332 33.4229 18.3332 34.3564 18.8571 34.9315Z" fill="#223008"/>
</svg>
