<svg width="56" height="47" viewBox="0 0 56 47" fill="none" xmlns="http://www.w3.org/2000/svg">
<path d="M48.0803 16.8163C48.0783 17.2632 47.9012 17.6912 47.5877 18.0066C47.2742 18.322 46.8498 18.4993 46.4072 18.4996H43.061C42.6172 18.4996 42.1917 18.3216 41.8779 18.0048C41.5642 17.6879 41.3879 17.2582 41.3879 16.8101C41.3879 16.362 41.5642 15.9323 41.8779 15.6155C42.1917 15.2986 42.6172 15.1206 43.061 15.1206H46.4072C46.8517 15.1216 47.2775 15.3008 47.5913 15.6188C47.905 15.9367 48.0809 16.3674 48.0803 16.8163Z" fill="#223008"/>
<path d="M49.7534 7.13311H44.8562L42.2977 1.97898C42.0569 1.49481 41.6869 1.0882 41.2294 0.804982C40.772 0.52176 40.2453 0.373188 39.7087 0.376016H16.2853C15.7472 0.373838 15.2193 0.523297 14.7608 0.807575C14.3023 1.09185 13.9315 1.49967 13.6901 1.98514L11.1438 7.13311H6.24665C4.59246 7.13448 3.00624 7.79772 1.83541 8.97755C0.664581 10.1574 0.00459117 11.7576 0 13.4278L0.00610621 40.4685C0.00804546 42.139 0.666152 43.7405 1.83606 44.9217C3.00597 46.103 4.59215 46.7674 6.24665 46.7694H49.7534C51.4079 46.7656 52.9936 46.1007 54.1641 44.9201C55.3346 43.7394 55.9946 42.139 56 40.4685V13.4216C55.9942 11.7524 55.3336 10.1536 54.1628 8.97498C52.9921 7.7964 51.4066 7.13412 49.7534 7.13311ZM53.5575 40.4624C53.5543 41.48 53.1525 42.4551 52.4397 43.1747C51.727 43.8943 50.7613 44.3 49.7534 44.3033H6.24665C5.23967 44.3022 4.27424 43.8978 3.5622 43.1789C2.85016 42.46 2.44966 41.4852 2.44859 40.4685L2.44248 13.4278C2.44621 12.4114 2.84859 11.4379 3.56156 10.7204C4.27452 10.0028 5.23999 9.5997 6.24665 9.5992H12.6582L15.87 3.09488C15.9093 3.01804 15.9688 2.95372 16.0422 2.90908C16.1155 2.86445 16.1996 2.84126 16.2853 2.84211H39.7087C39.7928 2.84064 39.8758 2.86295 39.948 2.90652C40.0203 2.9501 40.0791 3.0132 40.1178 3.08872L43.3419 9.5992H49.7534C50.76 9.5997 51.7255 10.0028 52.4385 10.7204C53.1514 11.4379 53.5538 12.4114 53.5575 13.4278V40.4624Z" fill="#223008"/>
<path d="M27.997 12.1948C25.4385 12.1942 22.9373 12.9596 20.8096 14.3943C18.682 15.829 17.0234 17.8684 16.0438 20.2548C15.0641 22.6411 14.8073 25.2672 15.3059 27.8009C15.8044 30.3346 17.0359 32.6622 18.8446 34.4892C20.6533 36.3163 22.958 37.5608 25.4672 38.0653C27.9765 38.5699 30.5775 38.3119 32.9415 37.3239C35.3055 36.3359 37.3262 34.6623 38.7481 32.5148C40.17 30.3672 40.9293 27.8422 40.9299 25.259C40.9276 21.7959 39.5645 18.4753 37.1397 16.026C34.715 13.5767 31.4269 12.1988 27.997 12.1948ZM27.997 35.8508C25.9213 35.8514 23.8921 35.2305 22.1659 34.0665C20.4398 32.9026 19.0944 31.2479 18.2998 29.3118C17.5052 27.3757 17.2971 25.2452 17.7019 23.1897C18.1067 21.1341 19.1062 19.246 20.5739 17.7641C22.0416 16.2822 23.9117 15.2731 25.9475 14.8643C27.9833 14.4556 30.0935 14.6657 32.011 15.468C33.9286 16.2703 35.5674 17.6287 36.7202 19.3716C37.8731 21.1144 38.488 23.1632 38.4874 25.259C38.4837 28.0669 37.3772 30.7588 35.4107 32.7443C33.4442 34.7299 30.7781 35.847 27.997 35.8508Z" fill="#223008"/>
</svg>
