<svg width="52" height="53" viewBox="0 0 52 53" fill="none" xmlns="http://www.w3.org/2000/svg">
<path d="M25.5187 52.0156C39.5873 52.0156 51.0346 40.4354 51.0346 26.2032C51.0346 11.971 39.5873 0.393555 25.5187 0.393555C11.4472 0.393555 0 11.971 0 26.2032C0.00273923 40.4354 11.45 52.0156 25.5187 52.0156ZM25.5187 3.39313C37.6425 3.39313 48 13.9385 48 26.2004C48 38.4651 37.6425 49.3866 25.5187 49.3866C13.3948 49.3866 3 38.4651 3 26.2004C3 13.9385 13.3948 3.39313 25.5187 3.39313Z" fill="#223008"/>
<path d="M25.5185 27.9795H32.1392C33.1144 27.9795 33.9033 27.1814 33.9033 26.1949C33.9033 25.2084 33.1144 25.3899 32.1392 25.3899H26.4999V10.2392C26.4999 9.25266 26.4937 8.45459 25.5185 8.45459C24.5434 8.45459 23.7545 9.25266 23.7545 10.2392V26.1921C23.7545 27.1786 24.5461 27.9795 25.5185 27.9795Z" fill="#223008"/>
</svg>
