<svg width="52" height="68" viewBox="0 0 52 68" fill="none" xmlns="http://www.w3.org/2000/svg">
<path fill-rule="evenodd" clip-rule="evenodd" d="M25.0709 66.7864C25.5044 67.1612 26.1429 67.1612 26.5535 66.7864C26.5535 66.7864 35.5418 58.9261 42.7278 48.7225C47.6096 41.7958 51.6244 33.7861 51.6244 26.4019C51.6244 12.0381 40.0589 0.376465 25.8239 0.376465C11.5661 0.376465 0 12.0381 0 26.4019C0 33.7861 4.01478 41.7958 8.89665 48.7225C16.0826 58.9261 25.0709 66.7864 25.0709 66.7864ZM25.8239 64.374C23.5427 62.2951 16.5618 55.6238 10.7446 47.391C6.15929 40.8645 2.28125 33.3584 2.28125 26.4019C2.28125 13.3075 12.8208 2.67614 25.8239 2.67614C38.8042 2.67614 49.3432 13.3075 49.3432 26.4019C49.3432 33.3584 45.4651 40.8645 40.8798 47.391C35.0854 55.6238 28.0823 62.2951 25.8239 64.374ZM25.8239 11.7506C17.9536 11.7506 11.5884 18.1805 11.5884 26.0983C11.5884 34.0161 17.9536 40.4459 25.8239 40.4459C33.6714 40.4459 40.036 34.0161 40.036 26.0983C40.036 18.1805 33.6714 11.7506 25.8239 11.7506ZM25.8239 14.0503C32.4167 14.0503 37.7548 19.4499 37.7548 26.0983C37.7548 32.7466 32.4167 38.1463 25.8239 38.1463C19.2083 38.1463 13.8696 32.7466 13.8696 26.0983C13.8696 19.4499 19.2083 14.0503 25.8239 14.0503Z" fill="#223008"/>
</svg>
