<?xml version="1.0" encoding="iso-8859-1"?>
<!-- Uploaded to: SVG Repo, www.svgrepo.com, Generator: SVG Repo Mixer Tools -->
<svg height="800px" width="800px" version="1.1" id="Layer_1" xmlns="http://www.w3.org/2000/svg" xmlns:xlink="http://www.w3.org/1999/xlink" 
	 viewBox="0 0 483.912 483.912" xml:space="preserve">
<path d="M305.516,222.272c-2.128-15.224-15.096-27.024-30.896-27.024c-12.968,0-24.112,7.92-28.872,19.168
	c-4.072-7.96-11.376-13.936-20.232-16.152c-2.128-15.224-15.096-27.024-30.896-27.024c-15.664,0-28.56,11.584-30.856,26.616
	c-12.52,2.52-22.296,12.528-24.584,25.128c-0.768-0.256-1.536-0.528-2.336-0.728c-2.128-15.224-15.096-27.024-30.896-27.024
	c-15.664,0-28.56,11.584-30.856,26.616c-14.312,2.896-25.136,15.568-25.136,30.728c0,4.416,3.584,8,8,8s8-3.584,8-8
	c0-8.456,6.88-15.336,15.336-15.336s15.336,6.88,15.336,15.336c0,4.416,3.584,8,8,8c0.24,0,0.44-0.112,0.664-0.136
	c0.232,0.024,0.432,0.136,0.664,0.136c4.416,0,8-3.584,8-8c0-8.456,6.88-15.336,15.336-15.336s15.336,6.88,15.336,15.336
	c0,4.416,3.584,8,8,8s8-3.584,8-8c0-7.576-2.816-14.448-7.312-19.872c0.76-1.224,1.312-2.584,1.312-4.128
	c0-8.456,6.88-15.336,15.336-15.336s15.336,6.88,15.336,15.336c0,4.416,3.584,8,8,8c0.24,0,0.44-0.112,0.664-0.136
	c0.232,0.024,0.432,0.136,0.664,0.136c4.416,0,8-3.584,8-8c0-8.456,6.88-15.336,15.336-15.336c7.664,0,13.976,5.672,15.096,13.032
	c-8.656,5.584-14.432,15.264-14.432,26.304c0,4.416,3.584,8,8,8s8-3.584,8-8c0-8.456,6.88-15.336,15.336-15.336
	c8.456,0,15.336,6.88,15.336,15.336c0,4.416,3.584,8,8,8c0.24,0,0.44-0.112,0.664-0.136c0.232,0.024,0.432,0.136,0.664,0.136
	c4.416,0,8-3.584,8-8c0-8.456,6.88-15.336,15.336-15.336s15.336,6.88,15.336,15.336c0,4.416,3.584,8,8,8s8-3.584,8-8
	C329.292,237.92,319.132,225.68,305.516,222.272z M105.292,232.68c-3.704-4.464-8.568-7.84-14.184-9.712
	c1.632-6.712,7.656-11.72,14.856-11.72c7.064,0,12.968,4.832,14.736,11.344C114.572,224.352,109.26,227.896,105.292,232.68z
	 M193.956,208.68c-3.704-4.464-8.568-7.84-14.184-9.712c1.632-6.712,7.656-11.72,14.856-11.72c7.064,0,12.968,4.832,14.736,11.344
	C203.236,200.352,197.924,203.896,193.956,208.68z M273.956,232.68c-3.704-4.464-8.568-7.84-14.184-9.712
	c1.632-6.712,7.656-11.72,14.856-11.72c7.064,0,12.968,4.832,14.736,11.344C283.236,224.352,277.924,227.896,273.956,232.68z"/>
<path d="M126.844,138.136c-16.664,0-30.224-13.56-30.224-30.224s13.56-30.224,30.224-30.224s30.232,13.56,30.232,30.224
	S143.516,138.136,126.844,138.136z M126.844,93.688c-7.84,0-14.224,6.384-14.224,14.224s6.384,14.224,14.224,14.224
	s14.232-6.384,14.232-14.224S134.692,93.688,126.844,93.688z"/>
<path d="M190.332,50.864c-14.024,0-25.432-11.408-25.432-25.432S176.308,0,190.332,0s25.432,11.408,25.432,25.432
	S204.356,50.864,190.332,50.864z M190.332,16c-5.2,0-9.432,4.232-9.432,9.432s4.232,9.432,9.432,9.432
	c5.2,0,9.432-4.232,9.432-9.432C199.764,20.232,195.532,16,190.332,16z"/>
<path d="M318.332,146.864c-14.024,0-25.432-11.408-25.432-25.432S304.308,96,318.332,96s25.432,11.408,25.432,25.432
	S332.356,146.864,318.332,146.864z M318.332,112c-5.2,0-9.432,4.232-9.432,9.432c0,5.2,4.232,9.432,9.432,9.432
	s9.432-4.232,9.432-9.432C327.764,116.232,323.532,112,318.332,112z"/>
<circle style="fill:#F5B945;" cx="407.3" cy="210.408" r="20.792"/>
<path style="fill:#FFFFFF;" d="M353.956,435.912h-224c-53.016,0-96-42.984-96-96v-32h416v32
	C449.956,392.928,406.972,435.912,353.956,435.912z"/>
<path style="fill:#F5B945;" d="M473.956,291.912c0,8.84-7.16,16-16,16h-432c-8.84,0-16-7.16-16-16l0,0c0-8.84,7.16-16,16-16h432
	C466.796,275.912,473.956,283.072,473.956,291.912L473.956,291.912z"/>
<path d="M457.956,267.912v-56c0-4.416-3.584-8-8-8h-14.664c-2.144-9.224-8.696-16.736-17.336-20.2v-19.8c0-4.416-3.584-8-8-8h-32
	c-4.416,0-8,3.584-8,8s3.584,8,8,8h24v10.24c-13.328,2.52-23.456,14.208-23.456,28.256c0,15.88,12.92,28.8,28.8,28.8
	c12.536,0,23.112-8.096,27.056-19.296h7.6v48h-416c-13.232,0-24,10.768-24,24s10.768,24,24,24v24
	c0,44.672,28.36,82.744,67.984,97.44l-16.728,30.56H57.956c-4.416,0-8,3.584-8,8s3.584,8,8,8h24c2.92,0,5.616-1.592,7.016-4.16
	l20.72-37.856c6.56,1.304,13.328,2.016,20.264,2.016h224c6.576,0,12.992-0.68,19.232-1.856l19.56,37.552
	c1.376,2.64,4.112,4.304,7.096,4.304h26.112c4.416,0,8-3.584,8-8s-3.584-8-8-8H404.7l-15.728-30.192
	c40.144-14.424,68.984-52.76,68.984-97.808v-24c13.232,0,24-10.768,24-24S471.188,267.912,457.956,267.912z M407.3,223.208
	c-7.056,0-12.8-5.744-12.8-12.8s5.744-12.8,12.8-12.8s12.8,5.744,12.8,12.8S414.356,223.208,407.3,223.208z M441.956,339.912
	c0,48.52-39.48,88-88,88h-224c-48.52,0-88-39.48-88-88v-24h400V339.912z M457.956,299.912h-8h-416h-8c-4.408,0-8-3.592-8-8
	s3.592-8,8-8h432c4.408,0,8,3.592,8,8S462.364,299.912,457.956,299.912z"/>
<path d="M361.956,363.912h-48c-4.416,0-8-3.584-8-8s3.584-8,8-8h48c4.416,0,8,3.584,8,8S366.372,363.912,361.956,363.912z"/>
<path d="M401.956,363.912h-8c-4.416,0-8-3.584-8-8s3.584-8,8-8h8c4.416,0,8,3.584,8,8S406.372,363.912,401.956,363.912z"/>
</svg>