<?xml version="1.0" encoding="iso-8859-1"?>
<!-- Uploaded to: SVG Repo, www.svgrepo.com, Generator: SVG Repo Mixer Tools -->
<svg version="1.1" id="Layer_1" xmlns="http://www.w3.org/2000/svg" xmlns:xlink="http://www.w3.org/1999/xlink" 
	 viewBox="0 0 512 512" xml:space="preserve">
<rect x="392.091" y="7.889" style="fill:#C69C6D;" width="112.072" height="96.069"/>
<polygon style="fill:#A67C52;" points="424.113,103.953 392.091,103.953 392.091,7.889 480.15,7.889 "/>
<rect x="7.834" y="7.889" style="fill:#C69C6D;" width="112.072" height="96.069"/>
<polygon style="fill:#A67C52;" points="39.856,103.953 7.834,103.953 7.834,7.889 95.893,7.889 "/>
<circle style="fill:#BDCCD4;" cx="79.879" cy="47.916" r="16.01"/>
<rect x="416.103" y="43.626" transform="matrix(-0.7071 -0.7071 0.7071 -0.7071 709.16 413.0172)" style="fill:#FBB03B;" width="48.031" height="32.021"/>
<rect x="264.006" y="151.985" style="fill:#FFFFFF;" width="104.071" height="48.032"/>
<polygon style="fill:#FCC062;" points="368.212,152.088 264.277,152.611 143.926,256.055 143.858,7.889 368.074,7.889 "/>
<path style="fill:#BDCCD4;" d="M324.13,111.959H187.87c-11.007,0-19.929-8.923-19.929-19.929V51.834
	c0-11.007,8.923-19.929,19.929-19.929h136.259c11.007,0,19.928,8.923,19.928,19.929V92.03
	C344.059,103.036,335.137,111.959,324.13,111.959z"/>
<polyline style="fill:#FBB03B;" points="143.629,264.38 263.755,264.38 263.755,152.611 "/>
<g>
	<path style="fill:#6B7E87;" d="M183.952,31.905L183.952,31.905c-8.842,0-16.01,7.168-16.01,16.011v48.032
		c0,8.842,7.168,16.01,16.01,16.01l0,0c8.842,0,16.01-7.168,16.01-16.01V47.916C199.963,39.074,192.794,31.905,183.952,31.905z"/>
	<path style="fill:#6B7E87;" d="M328.048,31.905L328.048,31.905c-8.842,0-16.011,7.168-16.011,16.011v48.032
		c0,8.842,7.168,16.01,16.011,16.01l0,0c8.842,0,16.01-7.168,16.01-16.01V47.916C344.059,39.074,336.891,31.905,328.048,31.905z"/>
</g>
<polygon style="fill:#BDCCD4;" points="368.074,504.221 143.926,504.221 143.926,264.06 264.008,264.06 264.006,200.018 
	368.074,200.018 "/>
<rect x="143.921" y="264.057" style="fill:#6B7E87;" width="48.032" height="240.158"/>
<rect x="279.424" y="168.28" width="16.713" height="15.669"/>
<rect x="304.493" y="168.28" width="15.669" height="15.669"/>
<rect x="328.518" y="168.28" width="15.669" height="15.669"/>
<path d="M360.24,23.9v120.354h-99.158l-109.323,94.8V23.9H136.09v464.31h15.669V271.692h120.353v-63.719h88.129V488.21h15.669V23.9
	H360.24z M156.107,256.023l100.336-87.007v87.007H156.107z M272.112,192.304v-32.382h88.129v8.357h-7.696v15.669h7.696v8.357
	H272.112z"/>
<rect x="200.036" y="335.412" width="72.076" height="15.669"/>
<rect x="272.112" y="352.125" width="24.025" height="15.669"/>
<rect x="167.654" y="424.201" width="48.05" height="15.669"/>
<rect x="207.348" y="384.507" width="25.07" height="15.669"/>
<rect x="256.443" y="456.583" width="63.719" height="15.669"/>
<rect x="192.724" y="56.511" width="15.669" height="31.337"/>
<path d="M328.518,24.094v-0.022c-0.151,0-144.154,0-144.154,0c-13.376,0-24.257,10.881-24.257,24.257v47.207
	c0,13.376,10.882,24.257,24.257,24.257c0,0,144.006,0,144.154,0v-0.022c12.967-0.467,23.374-11.155,23.374-24.235V48.329
	C351.893,35.249,341.486,24.561,328.518,24.094z M336.224,95.536c0,4.596-3.631,8.349-8.174,8.568
	c-4.955-0.218-8.178-3.849-8.178-7.899h-15.669c0,2.745,0.515,5.418,1.461,7.921h-99.338c0.947-2.502,1.47-5.176,1.47-7.921h-15.669
	c0,4.178-3.583,7.921-7.761,7.921h-0.003c-4.736,0-8.588-3.853-8.588-8.588V48.329c0-4.736,3.853-8.588,8.588-8.588h0.003
	c4.178,0,7.761,3.191,7.761,8.414h15.669c0-2.979-0.524-5.809-1.476-8.414h99.349c-0.949,2.604-1.467,5.435-1.467,8.414h15.669
	c0-5.053,3.209-8.194,8.147-8.394c4.557,0.202,8.206,3.962,8.206,8.57v47.206H336.224z"/>
<rect x="303.449" y="56.511" width="15.669" height="31.337"/>
<path d="M127.743,0.055H0v111.733h55.885v8.441h15.669v-8.441h56.19V0.055z M112.074,96.119H15.669V15.723h96.406V96.119z"/>
<rect x="136.317" y="0.103" width="15.669" height="15.669"/>
<rect x="359.856" y="0.103" width="15.669" height="15.669"/>
<rect x="160.342" y="0.103" width="192.202" height="15.669"/>
<rect x="136.317" y="496.277" width="15.669" height="15.669"/>
<rect x="160.342" y="496.277" width="192.202" height="15.669"/>
<rect x="359.856" y="496.277" width="15.669" height="15.669"/>
<path d="M79.883,24.071c-10.298,0-19.092,6.563-22.42,15.726h-9.935v15.669h9.741c3.166,9.458,12.103,16.295,22.613,16.295
	c13.148,0,23.846-10.696,23.846-23.844C103.727,34.768,93.031,24.071,79.883,24.071z M79.883,56.092
	c-4.508,0-8.177-3.667-8.177-8.176c0-4.508,3.667-8.177,8.177-8.177c4.508,0,8.177,3.667,8.177,8.177
	C88.059,52.425,84.391,56.092,79.883,56.092z"/>
<path d="M512,0.055H384.256v111.733h56.032v8.441h15.669v-8.441H512V0.055z M496.331,96.119h-47.645L479.504,65.3l-45.043-45.043
	L400.74,53.979l42.14,42.14h-42.957V15.723h96.407v80.396H496.331z M445.784,76.863L422.9,53.979l11.562-11.563L457.347,65.3
	L445.784,76.863z"/>
</svg>